<?xml version="1.0" standalone="no"?>
<!DOCTYPE svg PUBLIC "-//W3C//DTD SVG 20010904//EN"
 "http://www.w3.org/TR/2001/REC-SVG-20010904/DTD/svg10.dtd">
<svg version="1.0" xmlns="http://www.w3.org/2000/svg"
 width="2001.000000pt" height="2001.000000pt" viewBox="0 0 2001.000000 2001.000000"
 preserveAspectRatio="xMidYMid meet">
<metadata>
Created by potrace 1.14, written by Peter Selinger 2001-2017
</metadata>
<g transform="translate(0.000000,2001.000000) scale(0.100000,-0.100000)"
fill="#000000" stroke="none">
<path d="M7000 17411 c-88 -19 -123 -32 -425 -149 -299 -116 -698 -253 -1830
-627 -2148 -710 -2612 -892 -2844 -1110 -233 -220 -304 -652 -186 -1125 79
-316 249 -681 483 -1040 141 -217 222 -392 305 -660 100 -324 158 -613 252
-1265 53 -367 77 -503 106 -595 67 -213 218 -369 425 -440 179 -62 432 -39
664 60 l68 28 7 -71 c43 -446 208 -953 501 -1538 192 -385 386 -713 921 -1559
589 -932 828 -1351 957 -1682 87 -223 145 -410 316 -1033 215 -783 390 -1147
699 -1455 239 -239 508 -378 821 -425 138 -21 398 -19 582 5 84 11 281 44 438
74 410 79 484 89 655 89 167 0 258 -11 705 -83 372 -59 432 -67 635 -80 374
-25 699 34 948 173 299 168 545 438 731 807 134 263 232 542 386 1095 189 675
269 903 429 1224 152 302 322 603 719 1271 420 707 602 1030 777 1379 322 644
502 1191 555 1689 9 76 16 111 24 108 170 -76 306 -108 456 -109 138 0 210 16
329 74 158 78 280 232 330 420 30 112 46 206 96 571 143 1044 268 1499 526
1913 256 409 421 790 495 1140 34 161 44 436 20 570 -41 239 -136 413 -282
523 -271 203 -831 424 -2649 1045 -1101 376 -1520 526 -1820 649 -349 143
-430 163 -624 155 -256 -11 -455 -98 -658 -290 -144 -137 -256 -294 -367 -514
l-55 -111 -78 25 c-320 102 -786 191 -1173 225 -188 16 -724 16 -910 0 -197
-18 -457 -55 -642 -92 -137 -27 -427 -98 -469 -115 -12 -4 -23 8 -43 48 -92
190 -233 384 -374 518 -146 139 -305 232 -477 279 -115 32 -337 37 -455 11z
m3205 -1381 c397 -26 751 -89 1123 -201 130 -39 397 -133 410 -144 1 -1 -9
-41 -22 -88 -39 -136 -63 -273 -106 -624 -43 -346 -64 -467 -110 -653 -123
-494 -383 -1010 -775 -1540 -188 -253 -298 -457 -380 -702 -212 -638 -116
-1266 262 -1703 246 -284 598 -468 1048 -546 145 -26 487 -36 661 -20 715 65
1541 382 2434 934 80 50 184 116 232 148 l87 59 7 -58 c10 -82 -3 -399 -21
-522 -85 -563 -328 -1151 -845 -2050 -62 -107 -226 -386 -365 -620 -430 -724
-668 -1147 -803 -1430 -134 -280 -249 -606 -392 -1115 -180 -641 -254 -861
-360 -1080 -77 -157 -146 -261 -244 -363 -183 -190 -324 -244 -636 -244 -182
0 -300 12 -672 72 -787 127 -912 127 -1543 5 -401 -77 -462 -86 -641 -92 -188
-6 -276 6 -383 53 -123 55 -276 195 -371 339 -142 217 -228 451 -405 1098
-310 1130 -396 1307 -1427 2937 -371 587 -566 915 -736 1240 -244 469 -401
902 -457 1265 -20 125 -30 399 -21 526 l8 96 121 -82 c756 -510 1559 -883
2237 -1039 292 -67 410 -80 730 -80 255 -1 298 2 415 23 533 95 922 332 1169
714 161 247 245 547 246 872 0 316 -70 620 -214 920 -77 160 -130 246 -275
445 -482 659 -731 1206 -835 1830 -14 85 -39 268 -56 405 -34 284 -58 428 -96
565 -15 52 -28 105 -31 116 -4 19 7 26 114 63 604 215 1288 311 1918 271z
m-2042 -3435 c372 -65 697 -328 837 -679 64 -158 73 -213 74 -416 1 -208 -13
-283 -81 -448 -186 -442 -665 -725 -1137 -673 -265 30 -477 126 -657 298 -210
201 -317 417 -350 710 -35 307 80 643 299 874 158 168 359 281 587 329 113 23
309 26 428 5z m4187 -19 c197 -55 372 -159 517 -309 193 -199 297 -445 310
-727 24 -556 -357 -1039 -904 -1146 -116 -23 -310 -23 -426 0 -597 117 -993
689 -891 1287 39 228 137 420 300 589 167 173 380 286 623 331 25 4 120 6 211
4 140 -3 179 -7 260 -29z"/>
<path d="M9655 7959 c-605 -17 -1023 -114 -1300 -302 -137 -93 -281 -269 -344
-422 -80 -192 -109 -361 -118 -680 -5 -193 -3 -248 11 -335 45 -266 168 -491
396 -720 368 -370 938 -644 1461 -701 543 -60 1309 241 1759 691 210 209 332
413 390 653 38 155 36 496 -5 728 -66 379 -243 647 -546 830 -323 194 -896
281 -1704 258z"/>
<path d="M7855 11877 c-154 -51 -257 -168 -286 -321 -22 -121 27 -262 123
-352 198 -185 514 -124 631 123 29 62 32 76 32 168 0 88 -3 107 -27 158 -37
79 -117 160 -196 199 -55 27 -77 32 -151 35 -52 2 -102 -2 -126 -10z"/>
<path d="M11933 11871 c-273 -101 -360 -432 -168 -640 98 -105 231 -154 358
-131 219 40 373 259 328 468 -26 122 -113 233 -226 287 -80 38 -213 46 -292
16z"/>
</g>
</svg>
